# AST/ASF file generated using VICON BodyLanguage
# -----------------------------------------------
:version 1.10
:name VICON
:units
  mass 1.0
  length 0.45
  angle deg
:documentation
   .ast/.asf automatically generated from VICON data using
   VICON BodyBuilder and BodyLanguage model FoxedUp or BRILLIANT.MOD
:root
   order TX TY TZ RX RY RZ
   axis XYZ
   position 0 0 0  
   orientation 0 0 0 
:bonedata
  begin
     id 1 
     name lhipjoint
     direction 0.528046 -0.759594 0.379717 
     length 2.39752 
     axis 0 0 0  XYZ
  end
  begin
     id 2 
     name lfemur
     direction 0.34202 -0.939693 0  
     length 7.31175  
     axis 0 0 20  XYZ
    dof rx ry rz
    limits (-160.0 20.0)
           (-70.0 70.0)
           (-60.0 70.0)
  end
  begin
     id 3 
     name ltibia
     direction 0.34202 -0.939693 0   
     length 7.52482   
     axis 0 0 20   XYZ
    dof rx
    limits (-10.0 170.0)
  end
  begin
     id 4 
     name lfoot
     direction 0.0675379 -0.185559 0.980309   
     length 2.00961   
     axis -90 7.62852e-016 20   XYZ
    dof rx rz
    limits (-45.0 90.0)
           (-70.0 20.0)
  end
  begin
     id 5 
     name ltoes
     direction 1.5352e-011 -4.22286e-011 1   
     length 1.01383   
     axis -90 7.62852e-016 20   XYZ
    dof rx
    limits (-90.0 20.0)
  end
  begin
     id 6 
     name rhipjoint
     direction -0.510274 -0.769251 0.384544   
     length 2.36742  
     axis 0 0 0  XYZ 
  end
  begin
     id 7 
     name rfemur
     direction -0.34202 -0.939693 0   
     length 7.45325   
     axis 0 0 -20   XYZ
    dof rx ry rz
    limits (-160.0 20.0)
           (-70.0 70.0)
           (-70.0 60.0)
  end
  begin
     id 8 
     name rtibia
     direction -0.34202 -0.939693 0   
     length 7.49587   
     axis 0 0 -20   XYZ
    dof rx
    limits (-10.0 170.0)
 end
 begin
     id 9 
     name rfoot
     direction -0.106475 -0.292536 0.950308   
     length 2.20898  
     axis -90 -7.62852e-016 -20   XYZ
    dof rx rz
    limits (-45.0 90.0)
           (-20.0 70.0)
  end
  begin
     id 10 
     name rtoes
     direction -1.53597e-011 -4.22023e-011 1   
     length 1.10065   
     axis -90 -7.62852e-016 -20   XYZ
    dof rx
    limits (-90.0 20.0)
  end
  begin
     id 11 
     name lowerback
     direction 0.0260024 0.998026 -0.0571652   
     length 2.11214   
     axis 0 0 0   XYZ
    dof rx ry rz
    limits (-20.0 45.0)
           (-30.0 30.0)
           (-30.0 30.0)
  end
  begin
     id 12 
     name upperback
     direction 0.0216202 0.999542 -0.0211766   
     length 2.11689   
     axis 0 0 0   XYZ
    dof rx ry rz
    limits (-20.0 45.0)
           (-30.0 30.0)
           (-30.0 30.0)
  end
  begin
     id 13 
     name thorax
     direction 0.00883312 0.999944 0.00589057   
     length 2.11821   
     axis 0 0 0   XYZ
    dof rx ry rz
    limits (-20.0 45.0)
           (-30.0 30.0)
           (-30.0 30.0)
  end
  begin
     id 14 
     name lowerneck
     direction -0.059386 0.994433 0.0870401   
     length 1.81176   
     axis 0 0 0   XYZ
    dof rx ry rz
    limits (-20.0 45.0)
           (-30.0 30.0)
           (-30.0 30.0)
  end
  begin
     id 15 
     name upperneck
     direction 0.0506457 0.97328 -0.223967   
     length 1.82382   
     axis 0 0 0   XYZ
    dof rx ry rz
    limits (-20.0 45.0)
           (-30.0 30.0)
           (-30.0 30.0)
  end
  begin
     id 16
     name head
     direction 0.0205902 0.996147 -0.0852487  
     length 1.84805  
     axis 0 0 0   XYZ
    dof rx ry rz
    limits (-20.0 45.0)
           (-30.0 30.0)
           (-30.0 30.0)
  end
  begin
     id 17 
     name lclavicle
     direction 0.949493 0.303881 -0.0782325  
     length 3.60584  
     axis 0 0 0   XYZ
    dof ry rz
    limits (-20.0 10.0)
           (0.0 20.0)
  end
  begin
     id 18 
     name lhumerus
     direction 1 -4.48965e-011 1.48782e-027   
     length 4.95681   
     axis 180 -30 -90   XYZ
    dof rx ry rz
    limits (-60.0 90.0)
           (-90.0 90.0)
           (-90.0 90.0)
  end
  begin
     id 19
     name lradius
     direction 1 -4.48952e-011 2.06528e-027   
     length 3.40915   
     axis 180 -30 -90   XYZ
    dof rx
    limits (-10.0 170.0)
  end
  begin
     id 20
     name lwrist
     direction 1 -4.48964e-011 1.28021e-027   
     length 1.70457   
     axis -1.61767e-015 90 90   XYZ
    dof ry
    limits (-180.0 0.0)
 end
  begin
     id 21 
     name lhand
     direction 1 -4.49094e-011 2.54887e-027   
     length 0.616403   
     axis -1.63363e-015 90 90   XYZ
    dof rx rz
    limits (-90.0 90.0)
           (-45.0 45.0)
  end
  begin
     id 22 
     name lfingers
     direction 1 -4.49002e-011 5.11407e-027   
     length 0.49696   
     axis -3.26723e-015 90 90   XYZ
    dof rx
    limits (0.0 90.0)
  end
  begin
     id 23
     name lthumb
     direction 0.707107 -6.34998e-011 0.707107   
     length 0.713539   
     axis -90 45 -2.25915e-014   XYZ
    dof rx rz
    limits (-45.0 45.0)
           (-45.0 45.0)
  end
  begin
     id 24 
     name rclavicle
     direction -0.937751 0.334612 -0.0930482   
     length 3.46287  
     axis 0 0 0   XYZ 
    dof ry rz
    limits (-10.0 20.0)
           (-20.0 0.0)
  end
  begin
     id 25 
     name rhumerus
     direction -1 -4.48962e-011 3.59972e-027  
     length 5.352   
     axis 180 30 90   XYZ
    dof rx ry rz
    limits (-90.0 60.0)
           (-90.0 90.0)
           (-90.0 90.0)
  end
  begin
     id 26 
     name rradius
     direction -1 -4.48987e-011 -3.76925e-027   
     length 3.43721   
     axis 180 30 90   XYZ
    dof rx
    limits (-10.0 170.0)
  end
  begin
     id 27 
     name rwrist
     direction -1 -4.48943e-011 1.28112e-027   
     length 1.7186   
     axis -1.61767e-015 -90 -90   XYZ
    dof ry
    limits (-180.0 0.0)
  end
  begin
     id 28
     name rhand
     direction -1 -4.49027e-011 2.55483e-027   
     length 0.72009   
     axis -1.63363e-015 -90 -90   XYZ
    dof rx rz
    limits (-90.0 90.0)
           (-45.0 45.0)
  end
  begin
     id 29
     name rfingers
     direction -1 -4.48827e-011 5.14506e-027   
     length 0.580555   
     axis -3.26723e-015 -90 -90   XYZ
    dof rx
    limits (0.0 90.0)
  end
  begin
     id 30
     name rthumb
     direction -0.707107 -6.34936e-011 0.707107   
     length 0.833564   
     axis -90 -45 2.25915e-014   XYZ
    dof rx rz
    limits (-45.0 45.0)
           (-45.0 45.0)
  end
:hierarchy
  begin
    root lhipjoint rhipjoint lowerback
    lhipjoint lfemur
    lfemur ltibia
    ltibia lfoot
    lfoot ltoes
    rhipjoint rfemur
    rfemur rtibia
    rtibia rfoot
    rfoot rtoes
    lowerback upperback
    upperback thorax
    thorax lowerneck lclavicle rclavicle
    lowerneck upperneck
    upperneck head
    lclavicle lhumerus
    lhumerus lradius
    lradius lwrist
    lwrist lhand lthumb
    lhand lfingers
    rclavicle rhumerus
    rhumerus rradius
    rradius rwrist
    rwrist rhand rthumb
    rhand rfingers
  end

#!OML:ASF H:\Terrain\Patient Classification 1\Terrain2\Thursday\justin.ASF
:FULLY-SPECIFIED
:DEGREES
656
root 22.4862 23.0106 11.2221 -69.894 80.2514 -63.107
lowerback 10.0584 0.709301 6.8705
upperback 4.94945 1.91813 4.78196
thorax -0.420542 1.14306 0.915443
lowerneck -13.1558 -1.21798 -8.93738
upperneck 40.0015 1.93538 2.71806
head 16.5712 0.452435 3.33956
rclavicle 3.18055e-015 2.94201e-014
rhumerus -31.4644 -0.579867 -79.0863
rradius 42.6289
rwrist -13.7702
rhand -18.1281 12.4005
rfingers 7.12502
rthumb 8.14669 -17.4224
lclavicle 3.18055e-015 2.94201e-014
lhumerus -40.6394 7.99186 82.8425
lradius 31.9025
lwrist -0.545004
lhand -16.5908 17.1897
lfingers 7.12502
lthumb 9.63016 46.9495
rfemur 1.66056 -3.52848 30.236
rtibia 44.9831
rfoot -28.188 9.65
rtoes 7.23642
lfemur -31.0812 7.27991 -10.0552
ltibia 42.9102
lfoot 15.5338 -3.74336
ltoes 2.7696
657
root 22.5818 22.9357 11.2179 -69.7729 80.0937 -62.7841
lowerback 9.95955 0.664253 6.97668
upperback 5.08022 1.85346 4.79512
thorax -0.228112 1.12165 0.881854
lowerneck -13.1429 -1.16823 -8.87941
upperneck 40.0113 2.01025 2.6722
head 16.5678 0.485132 3.32116
rclavicle 2.04748e-014 1.82882e-014
rhumerus -31.4572 -0.593524 -79.0057
rradius 43.4267
rwrist -13.8707
rhand -18.1211 12.4292
rfingers 7.12502
rthumb 8.15348 -17.3935
lclavicle 2.04748e-014 1.82882e-014
lhumerus -40.7946 7.85053 82.7981
lradius 31.9537
lwrist -0.768312
lhand -16.4239 17.0642
lfingers 7.12502
lthumb 9.79121 46.8166
rfemur 1.47974 -3.69328 30.215
rtibia 46.5135
rfoot -28.682 9.86414
rtoes 5.99074
lfemur -30.0904 7.11811 -9.90243
ltibia 40.9397
lfoot 16.4047 -2.64049
ltoes 2.42284
658
root 22.6854 22.8443 11.2156 -71.6605 79.1006 -64.3075
lowerback 9.95282 0.593189 7.94589
upperback 5.25274 1.8592 5.05216
thorax -0.0148238 1.15885 0.618878
lowerneck -13.0884 -1.18987 -8.78857
upperneck 40.0459 1.94812 2.67494
head 16.5774 0.474281 3.29677
rclavicle 7.25564e-015 -1.74931e-014
rhumerus -31.4443 -0.969059 -78.8411
rradius 44.0751
rwrist -13.9334
rhand -17.9982 12.6175
rfingers 7.12502
rthumb 8.27212 -17.2005
lclavicle 7.25564e-015 -1.74931e-014
lhumerus -40.9092 7.71517 82.6992
lradius 31.9589
lwrist -1.14404
lhand -16.0939 17.0235
lfingers 7.12502
lthumb 10.1096 46.7606
rfemur 1.59811 -3.89714 31.2119
rtibia 47.9357
rfoot -28.9917 10.0517
rtoes 5.99347
lfemur -28.9163 7.05268 -8.6641
ltibia 38.9801
lfoot 17.4339 -1.48326
ltoes 2.99889
659
root 22.7903 22.7585 11.2102 -71.3948 78.7943 -63.7792
lowerback 9.84829 0.574947 8.12011
upperback 5.34985 1.83758 5.12816
thorax 0.147799 1.16023 0.60912
lowerneck -12.9573 -1.15804 -8.84008
upperneck 40.1018 1.99364 2.7215
head 16.5698 0.494146 3.33506
rclavicle 5.86415e-015 -4.05521e-014
rhumerus -31.4563 -1.37711 -78.6818
rradius 44.664
rwrist -13.8273
rhand -17.9687 12.4834
rfingers 7.12502
rthumb 8.30057 -17.3335
lclavicle 5.86415e-015 -4.05521e-014
lhumerus -41.0396 7.18431 82.8312
lradius 31.9205
lwrist -0.78564
lhand -16.1738 17.5426
lfingers 7.12502
lthumb 10.0325 47.2835
rfemur 1.67154 -4.07949 31.2907
rtibia 49.3054
rfoot -29.4043 10.072
rtoes 4.71094
lfemur -27.7413 6.70438 -8.21512
ltibia 37.041
lfoot 18.0841 0.253532
ltoes 4.8661
660
root 22.8911 22.684 11.2049 -69.2372 79.3792 -61.5518
lowerback 9.55084 0.552318 7.23491
upperback 5.43947 1.67889 5.01768
thorax 0.368853 1.06655 1.00432
lowerneck -12.8936 -1.00533 -8.87084
upperneck 40.058 2.26915 2.6044
head 16.5107 0.587945 3.3296
rclavicle 3.86636e-014 5.08889e-014
rhumerus -31.3517 -1.3213 -78.5673
rradius 45.2923
rwrist -13.8289
rhand -17.9778 12.3195
rfingers 7.12502
rthumb 8.2918 -17.4977
lclavicle 3.86636e-014 5.08889e-014
lhumerus -41.1991 7.08647 82.8572
lradius 31.9119
lwrist -0.516392
lhand -16.1716 18.0827
lfingers 7.12502
lthumb 10.0346 47.8235
rfemur 1.49019 -4.23494 30.2815
rtibia 50.7151
rfoot -29.9546 10.2036
rtoes 3.19692
lfemur -26.7221 6.00802 -8.81782
ltibia 35.0813
lfoot 18.4109 2.29877
ltoes 7.7532
661
root 22.9954 22.5979 11.1961 -67.9868 79.7954 -60.2596
lowerback 9.24005 0.6861 6.9144
upperback 5.46134 1.77763 4.76284
thorax 0.562036 1.11076 0.914959
lowerneck -12.6728 -1.03195 -8.53728
upperneck 39.9648 2.13194 2.52022
head 16.4172 0.577012 3.20157
rclavicle 6.75868e-015 2.38542e-014
rhumerus -31.5394 -1.8618 -78.4788
rradius 45.9233
rwrist -13.9619
rhand -18.3623 12.5257
rfingers 7.12502
rthumb 7.92063 -17.3059
lclavicle 6.75868e-015 2.38542e-014
lhumerus -41.46 6.66165 82.6797
lradius 32.0642
lwrist -0.783623
lhand -15.4918 17.7722
lfingers 7.12502
lthumb 10.6904 47.4802
rfemur 1.25941 -4.37633 29.5305
rtibia 52.1979
rfoot -30.5533 10.4894
rtoes 2.60289
lfemur -25.7581 5.73158 -9.3446
ltibia 33.0204
lfoot 19.2489 2.94125
ltoes 7.60926
662
root 23.1081 22.4986 11.187 -67.9361 79.9577 -59.9819
lowerback 9.08341 0.792422 6.94363
upperback 5.51067 1.89227 4.56042
thorax 0.711739 1.1731 0.684196
lowerneck -12.4889 -1.13046 -8.19215
upperneck 40.0363 1.89129 2.49179
head 16.4278 0.531093 3.08927
rclavicle -2.78299e-015 3.97569e-015
rhumerus -31.7799 -2.50644 -78.4267
rradius 46.4891
rwrist -14.0568
rhand -18.7851 12.5975
rfingers 7.12502
rthumb 7.5126 -17.2491
lclavicle -2.78299e-015 3.97569e-015
lhumerus -41.6086 5.99796 82.6224
lradius 32.1397
lwrist -0.918269
lhand -14.3664 17.3444
lfingers 7.12502
lthumb 11.7758 46.9933
rfemur 1.30152 -4.65196 29.0721
rtibia 53.704
rfoot -31.287 10.745
rtoes 2.07824
lfemur -24.5774 5.87325 -9.66152
ltibia 30.9283
lfoot 20.5432 2.33356
ltoes 4.26019
663
root 23.22 22.4008 11.1777 -68.072 80.1649 -60.0148
lowerback 8.81605 0.646859 6.5809
upperback 5.54248 1.63993 4.57514
thorax 0.869265 1.04104 0.926678
lowerneck -12.4913 -1.00178 -8.11073
upperneck 40.2729 2.12673 2.42204
head 16.5401 0.629913 3.09458
rclavicle -2.9271e-014 -3.89618e-014
rhumerus -31.705 -1.97521 -78.4177
rradius 46.8487
rwrist -14.5682
rhand -18.8543 12.4538
rfingers 7.12502
rthumb 7.44582 -17.3952
lclavicle -2.9271e-014 -3.89618e-014
lhumerus -41.9506 6.40065 82.5406
lradius 32.1584
lwrist -1.03025
lhand -13.8185 17.3154
lfingers 7.12502
lthumb 12.3041 46.9334
rfemur 1.21786 -5.01488 28.5653
rtibia 55.2101
rfoot -32.0176 11.1732
rtoes 1.8766
lfemur -23.5015 5.35986 -9.87315
ltibia 28.9167
lfoot 21.4653 2.73604
ltoes 4.268
664
root 23.3342 22.3093 11.1697 -68.1325 80.0618 -60.1775
lowerback 8.39269 0.570885 6.51619
upperback 5.43902 1.49342 4.66297
thorax 0.985341 0.963268 1.0713
lowerneck -12.3477 -0.911367 -8.05955
upperneck 40.4732 2.3014 2.35484
head 16.6023 0.703967 3.09243
rclavicle -3.62782e-015 -3.97569e-016
rhumerus -31.8489 -1.38643 -78.3603
rradius 47.1927
rwrist -15.196
rhand -18.8904 12.2154
rfingers 7.12502
rthumb 7.41093 -17.6348
lclavicle -3.62782e-015 -3.97569e-016
lhumerus -42.5663 6.65813 82.4797
lradius 32.2918
lwrist -0.767288
lhand -14.0778 16.935
lfingers 7.12502
lthumb 12.0541 46.5678
rfemur 0.858412 -5.03986 28.4646
rtibia 56.7008
rfoot -32.2372 12.3867
rtoes 4.9344
lfemur -22.5686 4.46885 -9.63072
ltibia 26.9627
lfoot 22.1724 3.73268
ltoes 6.09295
665
root 23.455 22.219 11.1624 -67.7638 80.078 -59.8209
lowerback 8.02785 0.564324 6.42447
upperback 5.34549 1.43984 4.65684
thorax 1.08471 0.931301 1.1247
lowerneck -12.138 -0.886007 -8.13898
upperneck 40.6024 2.36456 2.3845
head 16.6152 0.727718 3.13374
rclavicle -1.30204e-014 -3.18055e-014
rhumerus -32.247 -1.39533 -78.2698
rradius 47.7794
rwrist -15.1242
rhand -19.1784 11.9857
rfingers 7.12502
rthumb 7.1329 -17.8741
lclavicle -1.30204e-014 -3.18055e-014
lhumerus -42.9995 6.27836 82.5399
lradius 32.3578
lwrist -0.0791277
lhand -14.3814 16.8353
lfingers 7.12502
lthumb 11.7614 46.4851
rfemur 0.645992 -4.80403 28.2174
rtibia 58.1358
rfoot -31.9532 14.4176
rtoes 11.8461
lfemur -21.5395 3.94907 -9.61994
ltibia 25.1036
lfoot 23.0688 3.73168
ltoes 5.23657
666
root 23.5785 22.118 11.1525 -66.9639 80.4491 -58.7891
lowerback 7.83194 0.511456 5.93275
upperback 5.39464 1.31025 4.58376
thorax 1.22824 0.856088 1.33445
lowerneck -12.0502 -0.802337 -8.22991
upperneck 40.7358 2.54234 2.37825
head 16.6534 0.788555 3.18195
rclavicle -1.77912e-014 -3.02153e-014
rhumerus -32.4845 -1.59572 -78.1193
rradius 48.3876
rwrist -14.7421
rhand -19.3566 11.951
rfingers 7.12502
rthumb 6.96092 -17.9146
lclavicle -1.77912e-014 -3.02153e-014
lhumerus -43.2255 6.31873 82.5593
lradius 32.2601
lwrist 0.0257638
lhand -14.7458 17.3645
lfingers 7.12502
lthumb 11.4099 47.0341
rfemur 0.843473 -4.77046 27.575
rtibia 59.4863
rfoot -32.1233 15.3489
rtoes 14.3988
lfemur -20.3844 3.45069 -9.99308
ltibia 23.4959
lfoot 23.8 4.16887
ltoes 6.5703
667
root 23.7071 22.0066 11.1531 -67.6677 80.2059 -59.0201
lowerback 7.81281 0.448004 5.93821
upperback 5.55162 1.22487 4.70351
thorax 1.39886 0.821575 1.46522
lowerneck -12.0309 -0.767381 -8.16009
upperneck 40.9344 2.65031 2.27618
head 16.7544 0.829598 3.15207
rclavicle 1.10325e-014 2.94201e-014
rhumerus -32.612 -1.72899 -77.9615
rradius 48.8355
rwrist -14.7254
rhand -18.9757 11.9317
rfingers 7.12502
rthumb 7.32857 -17.9214
lclavicle 1.10325e-014 2.94201e-014
lhumerus -43.4176 6.6389 82.4261
lradius 32.0594
lwrist -0.201724
lhand -14.9014 17.0008
lfingers 7.12502
lthumb 11.2599 46.6786
rfemur 1.35219 -4.9426 27.7577
rtibia 60.8157
rfoot -33.1537 14.223
rtoes 9.22076
lfemur -19.0321 3.17076 -9.59426
ltibia 22.0751
lfoot 24.5453 4.93605
ltoes 9.07092
668
root 23.8303 21.8862 11.1515 -69.3291 79.3913 -60.4812
lowerback 7.66709 0.375579 6.6722
upperback 5.55523 1.16966 4.91724
thorax 1.49797 0.818023 1.28748
lowerneck -11.9788 -0.745973 -8.1566
upperneck 41.1661 2.67523 2.38128
head 16.8642 0.85501 3.21485
rclavicle -3.62782e-015 -2.14687e-014
rhumerus -32.8654 -1.70127 -77.9167
rradius 49.1861
rwrist -14.8636
rhand -18.6232 11.8226
rfingers 7.12502
rthumb 7.66881 -18.0183
lclavicle -3.62782e-015 -2.14687e-014
lhumerus -43.6808 6.89345 82.0809
lradius 31.882
lwrist -0.296868
lhand -14.638 16.1571
lfingers 7.12502
lthumb 11.5139 45.8208
rfemur 1.43614 -5.02874 28.703
rtibia 62.2748
rfoot -34.1037 12.5152
rtoes 2.52501
lfemur -17.913 3.24735 -8.64135
ltibia 20.5816
lfoot 25.6915 4.79555
ltoes 7.74167
669
root 23.9444 21.7652 11.133 -68.0775 79.5326 -59.4777
lowerback 7.23953 0.41071 6.53524
upperback 5.36467 1.16092 4.82755
thorax 1.53328 0.801804 1.27346
lowerneck -11.7649 -0.684478 -8.20665
upperneck 41.2396 2.7494 2.47234
head 16.8413 0.896593 3.27702
rclavicle -6.75868e-015 1.31198e-014
rhumerus -33.2725 -1.8083 -77.812
rradius 49.6308
rwrist -14.92
rhand -18.3648 11.7241
rfingers 7.12502
rthumb 7.91823 -18.1076
lclavicle -6.75868e-015 1.31198e-014
lhumerus -44.2 7.51465 81.5661
lradius 31.9173
lwrist -1.21976
lhand -13.9074 15.965
lfingers 7.12502
lthumb 12.2184 45.5881
rfemur 0.91034 -5.03252 28.3953
rtibia 63.9479
rfoot -34.8104 11.1272
rtoes -3.16463
lfemur -17.1949 3.16415 -8.965
ltibia 19.0315
lfoot 26.9104 4.31947
ltoes 4.37349
